<svg xmlns="http://www.w3.org/2000/svg" viewBox="19.22 62.67 171.43 171.43">
  <!-- Fondo cuadrado redondeado: color midnight CUAC -->
  <!-- viewBox centrado sobre el bounding-box real del path (147.43×126.91) + 12px padding uniforme -->
  <rect x="19.22" y="62.67" width="171.43" height="171.43" rx="27.43" fill="#0E0620"/>
  <!-- Logotipo CUAC en dorado, sin transform adicional: las coords del path lo colocan exactamente -->
  <g fill="#FEBF00">
    <path d="m 104.18474,211.60712 c 0.0263,-0.12806 2.81161,-16.34914 6.18949,-36.04684 3.63084,-21.17279 6.24736,-36.21204 6.40028,-36.78766 0.47099,-1.77275 1.06903,-3.01555 1.84926,-3.84299 0.55867,-0.59248 0.98497,-0.80928 1.59624,-0.81182 0.71389,-0.003 1.32855,0.3878 1.91833,1.21954 0.65568,0.92467 1.21582,2.24981 1.57736,3.7316 0.17425,0.71418 12.52327,72.30519 12.52327,72.6012 0,0.17 -0.0341,0.17179 -2.85436,0.14976 l -2.85437,-0.0223 -5.16753,-31.55554 c -2.84215,-17.35553 -5.18976,-31.52873 -5.21693,-31.49598 -0.0272,0.0327 -2.34545,14.15653 -5.15176,31.38619 -2.8063,17.22967 -5.12195,31.4124 -5.14589,31.51717 l -0.0435,0.1905 h -2.83388 -2.83388 z m -32.715766,-9.51416 c -3.375213,-0.38815 -6.840349,-2.40928 -9.288674,-5.41786 -1.972289,-2.42361 -3.468203,-5.73768 -4.098311,-9.07947 -0.255413,-1.35458 -0.315958,-3.97626 -0.122499,-5.30435 0.841734,-5.77847 4.453485,-9.88584 9.903208,-11.26219 3.02052,-0.76284 5.961602,-0.4015 8.653163,1.06312 0.377606,0.20547 0.770576,0.44162 0.873263,0.52477 l 0.186706,0.15119 -0.782378,2.11572 c -0.430308,1.16365 -0.794065,2.13097 -0.808347,2.14959 -0.01429,0.0186 -0.417132,-0.16014 -0.895218,-0.39726 -3.009538,-1.49269 -5.91312,-1.33497 -8.644927,0.46958 -3.435136,2.26915 -4.666676,7.02893 -3.063507,11.84014 1.766432,5.3012 5.999244,8.5905 10.419032,8.0966 3.290591,-0.36771 5.91121,-2.43026 7.014715,-5.5209 0.148479,-0.41585 0.292489,-0.77862 0.320019,-0.80615 0.03517,-0.0352 3.845473,1.92595 4.11485,2.11788 0.06901,0.0492 -0.553487,1.72876 -0.909605,2.45425 -1.194396,2.43323 -2.963334,4.19607 -5.46322,5.44438 -2.383684,1.19028 -4.889474,1.65062 -7.40827,1.36096 z m 23.918333,-3.16495 c -1.579237,-0.29841 -2.915285,-1.04369 -4.230738,-2.35999 -2.284261,-2.28575 -4.348207,-7.53793 -6.94161,-17.66453 -0.447054,-1.74563 -1.834113,-6.98387 -3.082354,-11.64054 -1.492512,-5.56794 -2.238105,-8.48422 -2.177746,-8.51794 0.128228,-0.0716 4.788377,-0.95427 4.82251,-0.91338 0.05426,0.065 4.947545,18.43245 5.343398,20.05699 1.14861,4.71379 3.409654,11.91361 4.409184,14.04013 0.469545,0.99896 1.081174,1.62988 2.038548,2.10284 l 0.657244,0.32469 h 1.104781 c 1.074565,0 1.120163,-0.008 1.667118,-0.27511 0.999037,-0.48877 1.752188,-1.48139 2.071808,-2.73055 0.51459,-2.01115 -0.75043,-21.90907 -1.964684,-30.90333 -0.289843,-2.14693 -2.248815,-19.97616 -2.218147,-20.18805 0.02191,-0.15141 0.294531,-0.23046 2.4281,-0.70412 1.321871,-0.29346 2.424621,-0.51235 2.450551,-0.48643 0.0259,0.0259 0.53147,4.38 1.12343,9.6757 0.59196,5.29571 1.19274,10.65726 1.33506,11.91456 0.92584,8.17895 1.53387,17.65794 1.53425,23.91833 2.5e-4,4.00912 -0.18605,6.6464 -0.58913,8.33967 -0.55196,2.31877 -2.0223,4.1854 -4.12656,5.23875 -1.484902,0.74331 -3.994615,1.08606 -5.655013,0.77231 z m 48.556333,-7.29643 c -1.15498,-0.11931 -2.92991,-0.64402 -4.02167,-1.18889 -1.1912,-0.59451 -2.80678,-1.81628 -3.46956,-2.62382 l -0.22331,-0.27209 1.29012,-1.88691 c 0.70957,-1.03781 1.30089,-1.90135 1.31406,-1.91899 0.0132,-0.0176 0.29928,0.22286 0.63581,0.53444 1.7378,1.60893 3.51857,2.34614 5.65988,2.3431 1.76454,-0.002 3.30173,-0.43361 4.61099,-1.29312 2.26799,-1.48891 3.74347,-3.97953 4.19764,-7.08561 0.15487,-1.05918 0.0604,-3.71668 -0.17056,-4.79607 -0.56038,-2.61933 -1.63601,-4.65628 -3.29499,-6.23979 -0.96203,-0.91827 -1.8473,-1.4775 -2.97739,-1.88084 -1.11754,-0.39886 -1.8921,-0.50641 -3.23548,-0.44925 -1.25998,0.0536 -2.10658,0.24397 -3.075,0.69141 -1.30634,0.60356 -2.53342,1.66514 -3.45846,2.99199 l -0.48907,0.70151 -0.39314,-0.36285 c -0.21623,-0.19957 -0.9741,-0.8923 -1.68417,-1.53942 -0.71007,-0.64711 -1.29094,-1.21861 -1.29082,-1.27 1.2e-4,-0.0514 0.13255,-0.31289 0.2943,-0.58111 1.14083,-1.89193 2.78558,-3.41108 4.74315,-4.38097 1.13048,-0.5601 1.94499,-0.844 3.21186,-1.11953 1.17815,-0.25623 4.11149,-0.27593 5.21247,-0.035 4.80124,1.05066 8.63301,4.66588 10.40334,9.8154 0.68911,2.00449 1.01564,3.85756 1.08621,6.16427 0.0748,2.44504 -0.18077,4.27724 -0.89434,6.41149 -1.94508,5.81755 -6.82835,9.39646 -12.70965,9.3148 -0.53674,-0.007 -1.10924,-0.0273 -1.27222,-0.0441 z M 40.692641,176.53175 c -2.84915,-0.20378 -5.181875,-1.27851 -7.043303,-3.24498 -0.803355,-0.84869 -1.185106,-1.40595 -1.682605,-2.45618 -0.568531,-1.20018 -0.751443,-2.05443 -0.745773,-3.48297 0.007,-1.77144 0.307629,-2.90463 1.268952,-4.78367 0.995186,-1.94522 2.945268,-4.25135 4.072382,-4.81593 1.813166,-0.90821 3.815138,-0.28409 5.535105,1.7256 0.573365,0.66995 0.789157,1.14725 0.784696,1.73567 -0.0057,0.75034 -0.404786,1.29147 -1.271781,1.72438 -0.498565,0.24894 -1.562388,0.56162 -1.910802,0.56162 -0.199459,0 -0.234508,-0.0348 -0.234342,-0.23284 1.67e-4,-0.19936 0.07015,-0.26699 0.486834,-0.47048 1.078923,-0.52688 1.704078,-1.15734 1.528879,-1.54186 -0.119772,-0.26287 -1.107332,-0.99863 -1.721057,-1.28223 -0.668046,-0.30871 -1.397667,-0.32932 -1.788525,-0.0505 -0.564552,0.4027 -1.96641,2.81781 -2.439464,4.2027 -0.833662,2.44058 -0.549179,4.28196 0.88514,5.72928 0.953088,0.96173 1.871787,1.4675 3.174998,1.74795 0.88479,0.1904 2.984484,0.10355 4.330615,-0.17913 2.574261,-0.54059 5.894739,-1.81014 8.665718,-3.31326 3.722034,-2.01902 9.953617,-7.06639 14.504733,-11.74835 12.317791,-12.67192 21.9373,-27.94389 28.84647,-45.79677 0.415499,-1.07362 0.773171,-1.96976 0.794832,-1.99142 0.02167,-0.0217 0.13225,-0.007 0.245753,0.0329 l 0.206375,0.0723 -0.663842,2.159 c -5.254646,17.08959 -13.838428,33.01096 -24.580813,45.593 -5.455957,6.3903 -12.772829,13.24206 -16.813508,15.74472 -0.923502,0.57199 -3.176276,1.74883 -4.233334,2.21149 -3.718316,1.62745 -7.212446,2.36376 -10.202333,2.14992 z M 164.92072,159.93778 c -3.40568,-0.38977 -6.6923,-1.42094 -10.52075,-3.30086 -3.01843,-1.48218 -4.46089,-2.42027 -7.62,-4.95566 -4.55037,-3.65195 -9.38743,-8.36648 -13.76531,-13.41664 -10.97464,-12.6599 -19.77144,-28.5203 -25.55773,-46.079932 -0.71336,-2.164848 -1.11045,-3.458353 -2.07916,-6.772797 -0.1166,-0.398967 -0.11596,-0.402095 0.0935,-0.454667 0.116,-0.02911 0.22926,-0.03459 0.25168,-0.01217 0.0224,0.02241 0.43518,1.122373 0.91723,2.444334 4.30539,11.806777 9.77269,22.673752 16.30982,32.417902 4.51601,6.73149 9.39412,12.73985 14.77063,18.19296 4.80362,4.87205 8.69363,8.1446 13.41966,11.28957 5.67157,3.77417 13.2069,6.29269 17.44901,5.83195 1.86,-0.20201 3.20072,-0.80011 4.46872,-1.99351 1.11084,-1.04547 1.61508,-2.09571 1.68435,-3.50817 0.0711,-1.4505 -0.25685,-2.77026 -1.11243,-4.47623 -0.57372,-1.14397 -1.70211,-2.84844 -2.15894,-3.26116 -0.73651,-0.6654 -1.92012,-0.5222 -3.30755,0.40016 -0.78175,0.5197 -1.19049,0.93504 -1.19049,1.20969 0,0.34664 0.71511,0.95859 1.67716,1.43523 0.45128,0.22358 0.82667,0.40651 0.8342,0.40651 0.008,0 -0.007,0.10729 -0.0321,0.23842 -0.0436,0.22699 -0.0625,0.23582 -0.39469,0.1841 -1.60568,-0.25003 -2.97504,-0.99023 -3.3219,-1.79564 -0.18709,-0.43444 -0.14608,-1.10136 0.1004,-1.63255 0.32911,-0.70926 1.81605,-2.13743 2.70327,-2.59642 0.92579,-0.47893 1.45966,-0.62125 2.32254,-0.61913 1.32075,0.003 2.13446,0.40641 3.39266,1.68093 3.90282,3.95341 5.3296,8.64978 3.79158,12.48028 -0.48912,1.21818 -1.09679,2.10231 -2.22544,3.23796 -1.02809,1.03445 -1.92101,1.70201 -2.99442,2.23865 -0.76497,0.38244 -2.36942,0.8965 -3.31325,1.06156 -0.93965,0.16432 -3.61388,0.23731 -4.59225,0.12533 z"/>
  </g>
</svg>
